<?xml version="1.0" encoding="utf-8"?>
<!-- Generator: Adobe Illustrator 23.0.4, SVG Export Plug-In . SVG Version: 6.00 Build 0)  -->
<svg version="1.1" id="Camada_1" xmlns="http://www.w3.org/2000/svg" xmlns:xlink="http://www.w3.org/1999/xlink" x="0px" y="0px"
	 viewBox="0 0 4533 4533" style="enable-background:new 0 0 4533 4533;" xml:space="preserve">
<style type="text/css">
	.st0{fill:#B3A280;}
</style>
<g>
	<g>
		<path class="st0" d="M4492.3,1252.5h-516.1c-3.4,0-6.2,2.8-6.2,6.2v48.7c0,3.2,1.8,6.4,5,6.8c54.4,8.2,214.9,50.2,214.9,109.3
			c0,24.4-9.2,61.1-18.3,85.5c-116,302.3-197.8,494.7-313.8,772.7h-25.2c-116-302.4-258.3-675-316.5-830.7
			c-15.2-36.7-21.3-67.2-21.3-70.3c0-50.3,83-57.6,152.1-60.8c3.7-0.2,6.7-2.9,6.7-6.5v-54.8c0-3.4-2.8-6.2-6.2-6.2h-619.7
			c-3.4,0-6.2,2.8-6.2,6.2v51.8c0,4.1,4,6.6,8,7.1c82.2,10.4,143,37.5,181.4,123.3l490.1,1184.6c0,0-204.2,529.7-381.3,572.5V3091
			c0-122.2-91.7-152.7-158.8-152.7c-106.9,0-174.2,97.7-174.2,177.1c0,152.7,143.6,207.6,226,207.6c183.3,0,293.3-27.4,565-644.3
			c12.3-24.4,76.3-189.4,158.8-394c119.1-284,265.7-641.4,335.9-803.2c41.4-85.7,160.2-157.2,220.4-169.9c3.3-0.8,5.6-3.8,5.6-7.2
			v-45.6C4498.4,1255.3,4495.7,1252.5,4492.3,1252.5z M2371.1,1706.7c-1.3-3.1-5.7-3-6.8,0.1c-72.9,192.4-148.9,378.8-224.8,575
			h-9.2c-128.2-323.8-268.8-675-329.9-830.7c-15.2-36.7-21.3-61.1-21.3-64.2c0-48,88.6-60.6,158.4-64c1.9-0.1,3.4-1.7,3.4-3.7v-63
			c0-2.1-1.7-3.7-3.7-3.7H1285c-2.1,0-3.7,1.6-3.7,3.7v57.1c0,1.9,1.4,3.4,3.2,3.7c84.9,10.3,186.6,70.9,219.8,152.3
			c176.9,417.8,265.4,637.6,481.7,1182.6c0.5,1.4,1.9,2.4,3.4,2.4h86.5c1.6,0,3-1.1,3.5-2.7c42.4-132.8,75.8-217.9,118.3-321
			c70.3-177.2,138.8-367.4,208.4-537.8c0.4-0.9,0.4-1.9,0-2.8L2371.1,1706.7z M3263.2,1799.4c1.3-3.2,0.5-6.6-0.8-9.8l-33.1-79.4
			c-1.3-3-5.7-3-6.8,0.2c-74.6,197.6-144.6,370.1-222.5,571.4h-9.1c-128.3-323.8-268.8-675-329.9-830.7
			c-15.2-36.7-21.4-61.1-21.4-64.2c0-47.4,86-60.3,155.3-63.8c3.5-0.2,6.6-2.9,6.6-6.5v-57.9c0-3.4-2.8-6.2-6.2-6.2h-647.3
			c-3.4,0-6.2,2.8-6.2,6.2v51.8c0,4.1,4.1,6.6,8.1,7.1c83.9,12,182.4,71.8,214.8,151.7c15.3,36,79.8,189.7,87.8,208.8
			c0.3,0.7,0.8,2.4,0.8,1.7c124.3,296.8,215.6,524.8,391.9,969.1c1.3,3.4,4.7,5.3,8.2,5.3h79.3c3.8,0,7-2.7,8.2-6.3
			c41.9-130.8,75.1-215.2,117.1-317.4C3130,2149.5,3192,1972.7,3263.2,1799.4z M1505.4,2061.9h-70c-0.8,0-1.5,0.4-1.7,1.2
			c-30.8,104.5-108.8,344.1-187.9,429.3c-61.1,64.2-177.4,79.4-289.5,79.4c-329.8,0-363.4-21.3-363.4-280.9v-818.4
			c0-67.2,18.3-128.3,94.7-152.8c54.5-18.1,165.8-39.3,221.3-42.6c0.9,0,1.6-0.8,1.6-1.8v-63.7c0-1-0.8-1.8-1.8-1.8H41.9
			c-3.4,0-6.2,2.8-6.2,6.2v65.5c0,3.2,1.5,6.5,4.7,7.1c49,8.5,101.6,20.4,134,31.2c76.3,24.5,94.7,85.5,94.7,152.8v928.3
			c0,67.2-21.4,125.2-94.7,152.7c-39.3,15.1-82.9,30.2-137,33.6c-1,0.1-1.7,0.8-1.7,1.7v63.7c0,1,0.8,1.9,1.8,1.9h1422.3
			c0.9,0,1.7-0.8,1.8-1.7l45.5-588.8C1507.3,2062.7,1506.4,2061.9,1505.4,2061.9z"/>
	</g>
</g>
</svg>
